<svg xmlns="http://www.w3.org/2000/svg" viewBox="0 0 243 243">
  <path fill="#121212" transform="translate(20.08,40.17)" d="M119.34,102.09v26.14c0,19.01,15.41,34.42,34.42,34.42h42.25c3.77,0,6.82-3.05,6.82-6.82v-72.88c0-3.77-3.05-6.82-6.82-6.82h-41.49c-6.28,0-11.36-5.09-11.36-11.36V6.82C143.15,3.06,140.1,0,136.33,0h-45.31c-2.07,0-4.03.94-5.33,2.56L1.49,107.94c-.97,1.21-1.49,2.71-1.49,4.26v43.63c0,3.77,3.05,6.82,6.82,6.82h45.31c2.07,0,4.03-.94,5.33-2.56l49.74-62.25c4.02-5.04,12.14-2.19,12.14,4.26Z"/>
</svg>
